<svg width="22" height="25" viewBox="0 0 22 25" fill="none" xmlns="http://www.w3.org/2000/svg">
<path fill-rule="evenodd" clip-rule="evenodd" d="M21.8906 7.46729V21.7173C21.8906 22.5129 21.5746 23.276 21.0119 23.8386C20.4493 24.4012 19.6863 24.7173 18.8906 24.7173V23.2173C19.2884 23.2173 19.67 23.0592 19.9513 22.7779C20.2326 22.4966 20.3906 22.1151 20.3906 21.7173V7.46729H17.3906C16.7939 7.46729 16.2216 7.23023 15.7996 6.80828C15.3777 6.38632 15.1406 5.81402 15.1406 5.21729V2.21729H6.89062C6.4928 2.21729 6.11127 2.37532 5.82996 2.65662C5.54866 2.93793 5.39062 3.31946 5.39062 3.71729V17.2173H3.89062V3.71729C3.89062 2.92164 4.2067 2.15857 4.7693 1.59596C5.33191 1.03336 6.09497 0.717285 6.89062 0.717285L15.1406 0.717285L21.8906 7.46729ZM14.5241 21.9723H13.8596V21.0588H14.4926C14.6601 21.0613 14.8257 21.0238 14.9756 20.9493C15.1106 20.8808 15.2247 20.7772 15.3056 20.6493C15.3855 20.5219 15.4252 20.3735 15.4196 20.2233C15.4232 20.1117 15.4013 20.0007 15.3555 19.8988C15.3098 19.7969 15.2414 19.7068 15.1556 19.6353C14.9701 19.4808 14.7339 19.4006 14.4926 19.4103C14.3639 19.4074 14.2358 19.4283 14.1146 19.4718C14.0085 19.5092 13.9103 19.5662 13.8251 19.6398C13.7474 19.7044 13.6835 19.7841 13.6374 19.8741C13.5913 19.9641 13.5638 20.0624 13.5566 20.1633H12.4556C12.4646 19.9283 12.5156 19.7098 12.6086 19.5078C12.7026 19.3058 12.8376 19.1298 13.0136 18.9798C13.1896 18.8278 13.4036 18.7093 13.6556 18.6243C13.9106 18.5393 14.2021 18.4953 14.5301 18.4923C14.9481 18.4893 15.3096 18.5553 15.6146 18.6903C15.9186 18.8253 16.1546 19.0113 16.3226 19.2483C16.4938 19.4829 16.5848 19.7664 16.5821 20.0568C16.5961 20.3085 16.5333 20.5585 16.4021 20.7738C16.3002 20.9409 16.1653 21.0855 16.0057 21.1987C15.8461 21.3119 15.665 21.3914 15.4736 21.4323V21.4938C15.6896 21.5178 15.8977 21.5885 16.0837 21.7009C16.2697 21.8133 16.429 21.9647 16.5506 22.1448C16.701 22.377 16.7764 22.6498 16.7666 22.9263C16.7696 23.2113 16.7111 23.4648 16.5911 23.6868C16.4724 23.9112 16.3036 24.1053 16.0976 24.2538C15.8876 24.4058 15.6446 24.5228 15.3686 24.6048C15.0956 24.6848 14.8041 24.7248 14.4941 24.7248C14.0431 24.7248 13.6581 24.6483 13.3391 24.4953C13.0447 24.3598 12.7923 24.1473 12.6086 23.8803C12.4443 23.6284 12.352 23.3364 12.3416 23.0358H13.4306C13.4423 23.1781 13.4978 23.3134 13.5896 23.4228C13.6927 23.5388 13.8203 23.6305 13.9631 23.6913C14.134 23.7572 14.3155 23.7913 14.4986 23.7918C14.6967 23.7965 14.8933 23.7576 15.0746 23.6778C15.2288 23.6071 15.3598 23.4942 15.4526 23.3523C15.5438 23.2097 15.5898 23.0429 15.5846 22.8738C15.5875 22.7084 15.5414 22.546 15.4523 22.4067C15.3632 22.2674 15.2349 22.1575 15.0836 22.0908C14.9099 22.007 14.7184 21.9664 14.5256 21.9723H14.5241ZM1.94962 24.6048V20.6148H2.00662L3.43462 23.8548H4.20862L5.62762 20.6148H5.68462V24.6048H6.75712V18.6063H5.55712L3.84712 22.5003H3.80812L2.09812 18.6063H0.890625V24.6063L1.94962 24.6048ZM10.1366 18.6063H7.73662V24.6063H8.92462V22.5933H10.1291C10.5591 22.5933 10.9251 22.5068 11.2271 22.3338C11.5311 22.1568 11.7626 21.9193 11.9216 21.6213C12.0863 21.3085 12.1694 20.9592 12.1631 20.6058C12.1631 20.2318 12.0841 19.8933 11.9261 19.5903C11.7678 19.2917 11.5287 19.0438 11.2361 18.8748C10.9011 18.6863 10.5208 18.5935 10.1366 18.6063ZM10.9541 20.6058C10.9595 20.8039 10.9157 21.0002 10.8266 21.1773C10.7472 21.3304 10.6232 21.4559 10.4711 21.5373C10.2964 21.6233 10.1033 21.6655 9.90862 21.6603H8.91862V19.5513H9.90862C10.2366 19.5513 10.4931 19.6423 10.6781 19.8243C10.8621 20.0053 10.9541 20.2658 10.9541 20.6058Z" fill="white"/>
</svg>
