<svg width="20" height="14" viewBox="0 0 20 14" fill="none" xmlns="http://www.w3.org/2000/svg">
<path d="M2.89062 0.217285C2.16128 0.217285 1.46181 0.507016 0.946081 1.02274C0.430356 1.53847 0.140625 2.23794 0.140625 2.96729V10.4673C0.140625 11.1966 0.430356 11.8961 0.946081 12.4118C1.46181 12.9276 2.16128 13.2173 2.89062 13.2173H11.3906C12.12 13.2173 12.8194 12.9276 13.3352 12.4118C13.8509 11.8961 14.1406 11.1966 14.1406 10.4673V8.87329L17.5596 11.9183C18.3646 12.6353 19.6406 12.0633 19.6406 10.9843V2.08228C19.6406 1.00228 18.3646 0.431285 17.5596 1.14829L14.1406 4.19328V2.96729C14.1406 2.23794 13.8509 1.53847 13.3352 1.02274C12.8194 0.507016 12.12 0.217285 11.3906 0.217285H2.89062Z" fill="white"/>
</svg>
