<svg width="189" height="80" viewBox="0 0 189 80" fill="none" xmlns="http://www.w3.org/2000/svg">
<g filter="url(#filter0_d_3028_598)">
<rect x="15.5" y="16.2827" width="158" height="48" rx="3.33333" fill="#FF7F00"/>
<path d="M39.5 32.5C38.7707 32.5 38.0712 32.7897 37.5555 33.3055C37.0397 33.8212 36.75 34.5207 36.75 35.25V42.75C36.75 43.4793 37.0397 44.1788 37.5555 44.6945C38.0712 45.2103 38.7707 45.5 39.5 45.5H48C48.7293 45.5 49.4288 45.2103 49.9445 44.6945C50.4603 44.1788 50.75 43.4793 50.75 42.75V41.156L54.169 44.201C54.974 44.918 56.25 44.346 56.25 43.267V34.365C56.25 33.285 54.974 32.714 54.169 33.431L50.75 36.476V35.25C50.75 34.5207 50.4603 33.8212 49.9445 33.3055C49.4288 32.7897 48.7293 32.5 48 32.5H39.5Z" fill="white"/>
<g clip-path="url(#clip0_3028_598)">
<path fill-rule="evenodd" clip-rule="evenodd" d="M103.5 33.75V48C103.5 48.7956 103.184 49.5587 102.621 50.1213C102.059 50.6839 101.296 51 100.5 51V49.5C100.898 49.5 101.279 49.342 101.561 49.0607C101.842 48.7794 102 48.3978 102 48V33.75H99C98.4033 33.75 97.831 33.5129 97.409 33.091C96.9871 32.669 96.75 32.0967 96.75 31.5V28.5H88.5C88.1022 28.5 87.7206 28.658 87.4393 28.9393C87.158 29.2206 87 29.6022 87 30V43.5H85.5V30C85.5 29.2044 85.8161 28.4413 86.3787 27.8787C86.9413 27.3161 87.7043 27 88.5 27H96.75L103.5 33.75ZM96.1335 48.255H95.469V47.3415H96.102C96.2694 47.344 96.435 47.3065 96.585 47.232C96.72 47.1636 96.834 47.0599 96.915 46.932C96.9948 46.8046 97.0345 46.6562 97.029 46.506C97.0326 46.3944 97.0106 46.2834 96.9649 46.1815C96.9191 46.0796 96.8508 45.9895 96.765 45.918C96.5795 45.7635 96.3432 45.6833 96.102 45.693C95.9733 45.6902 95.8452 45.711 95.724 45.7545C95.6178 45.7919 95.5196 45.8489 95.4345 45.9225C95.3568 45.9872 95.2929 46.0669 95.2468 46.1568C95.2006 46.2468 95.1732 46.3451 95.166 46.446H94.065C94.074 46.211 94.125 45.9925 94.218 45.7905C94.312 45.5885 94.447 45.4125 94.623 45.2625C94.799 45.1105 95.013 44.992 95.265 44.907C95.52 44.822 95.8115 44.778 96.1395 44.775C96.5575 44.772 96.919 44.838 97.224 44.973C97.528 45.108 97.764 45.294 97.932 45.531C98.1032 45.7656 98.1942 46.0491 98.1915 46.3395C98.2055 46.5912 98.1427 46.8412 98.0115 47.0565C97.9096 47.2236 97.7747 47.3682 97.6151 47.4814C97.4554 47.5946 97.2744 47.6741 97.083 47.715V47.7765C97.299 47.8005 97.5071 47.8712 97.6931 47.9836C97.879 48.096 98.0383 48.2475 98.16 48.4275C98.3104 48.6597 98.3858 48.9325 98.376 49.209C98.379 49.494 98.3205 49.7475 98.2005 49.9695C98.0818 50.194 97.9129 50.388 97.707 50.5365C97.497 50.6885 97.254 50.8055 96.978 50.8875C96.705 50.9675 96.4135 51.0075 96.1035 51.0075C95.6525 51.0075 95.2675 50.931 94.9485 50.778C94.6541 50.6425 94.4017 50.43 94.218 50.163C94.0537 49.9111 93.9614 49.6191 93.951 49.3185H95.04C95.0517 49.4608 95.1072 49.5961 95.199 49.7055C95.3021 49.8215 95.4297 49.9132 95.5725 49.974C95.7434 50.0399 95.9249 50.074 96.108 50.0745C96.306 50.0792 96.5027 50.0403 96.684 49.9605C96.8382 49.8898 96.9692 49.7769 97.062 49.635C97.1532 49.4924 97.1992 49.3257 97.194 49.1565C97.1968 48.9912 97.1508 48.8287 97.0617 48.6894C96.9726 48.5501 96.8443 48.4402 96.693 48.3735C96.5192 48.2897 96.3278 48.2491 96.135 48.255H96.1335ZM83.559 50.8875V46.8975H83.616L85.044 50.1375H85.818L87.237 46.8975H87.294V50.8875H88.3665V44.889H87.1665L85.4565 48.783H85.4175L83.7075 44.889H82.5V50.889L83.559 50.8875ZM91.746 44.889H89.346V50.889H90.534V48.876H91.7385C92.1685 48.876 92.5345 48.7895 92.8365 48.6165C93.1405 48.4395 93.372 48.202 93.531 47.904C93.6957 47.5912 93.7787 47.2419 93.7725 46.8885C93.7725 46.5145 93.6935 46.176 93.5355 45.873C93.3772 45.5745 93.1381 45.3265 92.8455 45.1575C92.5105 44.9691 92.1302 44.8762 91.746 44.889ZM92.5635 46.8885C92.5688 47.0866 92.525 47.283 92.436 47.46C92.3565 47.6131 92.2326 47.7386 92.0805 47.82C91.9058 47.906 91.7127 47.9483 91.518 47.943H90.528V45.834H91.518C91.846 45.834 92.1025 45.925 92.2875 46.107C92.4715 46.288 92.5635 46.5485 92.5635 46.8885Z" fill="white"/>
</g>
<path fill-rule="evenodd" clip-rule="evenodd" d="M142.5 29V35.5C142.5 35.8978 142.658 36.2794 142.939 36.5607C143.221 36.842 143.602 37 144 37H150.5V47C150.5 47.5304 150.289 48.0391 149.914 48.4142C149.539 48.7893 149.03 49 148.5 49H136.5C135.97 49 135.461 48.7893 135.086 48.4142C134.711 48.0391 134.5 47.5304 134.5 47V31C134.5 30.4696 134.711 29.9609 135.086 29.5858C135.461 29.2107 135.97 29 136.5 29H142.5ZM141.511 38.848C141.272 40.3711 140.475 41.7509 139.276 42.72C138.389 43.436 139.2 44.841 140.264 44.432C141.703 43.8779 143.296 43.8779 144.735 44.432C145.799 44.842 146.61 43.437 145.723 42.72C144.524 41.7509 143.727 40.3711 143.488 38.848C143.311 37.722 141.688 37.721 141.511 38.848ZM142.5 41.303L143.306 42.697H141.696L142.5 41.303ZM144.5 29.043C144.879 29.1234 145.226 29.312 145.5 29.586L149.914 34C150.188 34.2737 150.377 34.6211 150.457 35H144.5V29.043Z" fill="white"/>
</g>
<defs>
<filter id="filter0_d_3028_598" x="0" y="0.782715" width="189" height="79" filterUnits="userSpaceOnUse" color-interpolation-filters="sRGB">
<feFlood flood-opacity="0" result="BackgroundImageFix"/>
<feColorMatrix in="SourceAlpha" type="matrix" values="0 0 0 0 0 0 0 0 0 0 0 0 0 0 0 0 0 0 127 0" result="hardAlpha"/>
<feOffset/>
<feGaussianBlur stdDeviation="7.75"/>
<feComposite in2="hardAlpha" operator="out"/>
<feColorMatrix type="matrix" values="0 0 0 0 0 0 0 0 0 0 0 0 0 0 0 0 0 0 0.25 0"/>
<feBlend mode="normal" in2="BackgroundImageFix" result="effect1_dropShadow_3028_598"/>
<feBlend mode="normal" in="SourceGraphic" in2="effect1_dropShadow_3028_598" result="shape"/>
</filter>
<clipPath id="clip0_3028_598">
<rect width="24" height="24" fill="white" transform="translate(82.5 27)"/>
</clipPath>
</defs>
</svg>
