<svg width="15" height="16" viewBox="0 0 15 16" fill="none" xmlns="http://www.w3.org/2000/svg">
<path d="M7.2 7.7C6.80218 7.7 6.42064 7.54197 6.13934 7.26066C5.85804 6.97936 5.7 6.59783 5.7 6.2C5.7 5.80218 5.85804 5.42064 6.13934 5.13934C6.42064 4.85804 6.80218 4.7 7.2 4.7C7.59782 4.7 7.97936 4.85804 8.26066 5.13934C8.54196 5.42064 8.7 5.80218 8.7 6.2C8.7 6.39698 8.6612 6.59204 8.58582 6.77403C8.51044 6.95601 8.39995 7.12137 8.26066 7.26066C8.12137 7.39995 7.95601 7.51044 7.77402 7.58582C7.59204 7.6612 7.39698 7.7 7.2 7.7ZM7.2 2C6.08609 2 5.0178 2.4425 4.23015 3.23015C3.4425 4.0178 3 5.08609 3 6.2C3 9.35 7.2 14 7.2 14C7.2 14 11.4 9.35 11.4 6.2C11.4 5.08609 10.9575 4.0178 10.1698 3.23015C9.38219 2.4425 8.31391 2 7.2 2Z" fill="white"/>
</svg>
