<svg width="17" height="23" viewBox="0 0 17 23" fill="none" xmlns="http://www.w3.org/2000/svg">
<path fill-rule="evenodd" clip-rule="evenodd" d="M8.89062 0.717285V7.21729C8.89062 7.61511 9.04866 7.99664 9.32996 8.27795C9.61127 8.55925 9.9928 8.71729 10.3906 8.71729H16.8906V18.7173C16.8906 19.2477 16.6799 19.7564 16.3048 20.1315C15.9298 20.5066 15.4211 20.7173 14.8906 20.7173H2.89062C2.36019 20.7173 1.85148 20.5066 1.47641 20.1315C1.10134 19.7564 0.890625 19.2477 0.890625 18.7173V2.71729C0.890625 2.18685 1.10134 1.67814 1.47641 1.30307C1.85148 0.927999 2.36019 0.717285 2.89062 0.717285H8.89062ZM7.90162 10.5653C7.66225 12.0883 6.86575 13.4682 5.66663 14.4373C4.77962 15.1533 5.59062 16.5583 6.65462 16.1493C8.09345 15.5951 9.6868 15.5951 11.1256 16.1493C12.1896 16.5593 13.0006 15.1543 12.1136 14.4373C10.9145 13.4682 10.118 12.0883 9.87862 10.5653C9.70162 9.43928 8.07862 9.43828 7.90162 10.5653ZM8.89062 13.0203L9.69662 14.4143H8.08663L8.89062 13.0203ZM10.8906 0.760285C11.2695 0.840641 11.6169 1.02928 11.8906 1.30329L16.3046 5.71729C16.5786 5.99101 16.7673 6.33841 16.8476 6.71729H10.8906V0.760285Z" fill="white"/>
</svg>
