<svg width="15" height="16" viewBox="0 0 15 16" fill="none" xmlns="http://www.w3.org/2000/svg">
<g clip-path="url(#clip0_3029_1578)">
<path d="M1.9 3.5H13.3C13.804 3.5 14.2 3.89 14.2 4.4V11.3C14.2 11.81 13.804 12.2 13.3 12.2H1.9C1.39 12.2 1 11.81 1 11.3V4.4C1 3.89 1.39 3.5 1.9 3.5ZM6.226 5.9V9.8L9.652 7.82L6.226 5.9ZM10.75 13.4H4.39C4.21 13.4 4.09 13.28 4.09 13.1C4.09 12.92 4.21 12.8 4.39 12.8H10.81C10.99 12.8 11.11 12.92 11.11 13.1C11.11 13.28 10.93 13.4 10.75 13.4Z" fill="white"/>
</g>
<defs>
<clipPath id="clip0_3029_1578">
<rect width="14.4" height="14.4" fill="white" transform="translate(0.400391 0.800049)"/>
</clipPath>
</defs>
</svg>
